<?xml version="1.0" standalone="no"?>
<!DOCTYPE svg PUBLIC "-//W3C//DTD SVG 20010904//EN"
 "http://www.w3.org/TR/2001/REC-SVG-20010904/DTD/svg10.dtd">
<svg version="1.0" xmlns="http://www.w3.org/2000/svg"
 width="284.000000pt" height="177.000000pt" viewBox="0 0 284.000000 177.000000"
 preserveAspectRatio="xMidYMid meet">

<g transform="translate(0.000000,177.000000) scale(0.100000,-0.100000)"
fill="#000000" stroke="none">
<path d="M2265 1130 l90 -90 152 0 153 0 0 -153 0 -152 85 -85 84 -84 3 327 3
327 -330 0 -330 0 90 -90z"/>
<path d="M238 1151 c-5 -14 -56 -141 -113 -283 -58 -142 -105 -263 -105 -269
0 -6 28 -9 72 -7 l72 3 22 55 22 55 132 3 131 3 26 -61 26 -60 74 0 c40 0 73
4 73 8 0 5 -54 130 -121 278 -66 148 -123 274 -126 281 -3 7 -37 13 -90 15
-83 3 -86 2 -95 -21z m147 -232 l43 -104 -85 -3 c-47 -2 -87 -1 -89 1 -3 2 12
46 31 98 20 52 38 100 40 108 8 20 11 14 60 -100z"/>
<path d="M805 1173 l-60 -4 2 -287 2 -287 70 -3 71 -3 2 182 3 182 74 -86 c40
-48 81 -87 90 -87 9 0 48 38 86 85 39 46 73 84 78 84 4 1 7 -80 7 -179 l0
-180 70 0 70 0 0 293 0 292 -65 -3 -64 -4 -92 -105 c-89 -101 -93 -104 -108
-85 -30 38 -174 202 -175 200 0 -1 -28 -3 -61 -5z"/>
<path d="M1490 878 l0 -291 163 6 c102 4 181 12 214 22 68 20 132 70 163 125
22 39 25 57 25 140 0 109 -15 150 -76 211 -64 64 -123 79 -319 79 l-170 0 0
-292z m330 170 c53 -27 85 -72 94 -130 19 -134 -63 -218 -211 -218 l-73 0 0
185 0 185 73 0 c56 0 83 -5 117 -22z"/>
<path d="M2258 903 l-88 -88 0 -133 0 -132 128 0 127 0 90 90 90 90 -127 0
-127 0 -3 130 -3 130 -87 -87z"/>
</g>
</svg>
