<?xml version="1.0" standalone="no"?>
<!DOCTYPE svg PUBLIC "-//W3C//DTD SVG 20010904//EN"
 "http://www.w3.org/TR/2001/REC-SVG-20010904/DTD/svg10.dtd">
<svg version="1.0" xmlns="http://www.w3.org/2000/svg"
 width="298.000000pt" height="169.000000pt" viewBox="0 0 298.000000 169.000000"
 preserveAspectRatio="xMidYMid meet">

<g transform="translate(0.000000,169.000000) scale(0.100000,-0.100000)"
fill="#000000" stroke="none">
<path d="M0 845 l0 -845 1490 0 1490 0 0 845 0 845 -1490 0 -1490 0 0 -845z
m2465 63 l0 -413 -77 -3 -78 -3 0 414 c0 227 2 416 4 418 2 2 37 3 78 2 l73
-2 0 -413z m-1837 325 l-3 -78 -75 0 -75 0 -3 78 -3 77 81 0 81 0 -3 -77z
m882 -63 l0 -110 50 0 50 0 0 -65 0 -65 -50 0 -50 0 0 -134 c0 -128 1 -136 22
-150 12 -9 35 -16 50 -16 28 0 28 0 28 -71 l0 -72 -68 5 c-115 8 -165 51 -182
155 -6 32 -10 187 -10 346 l0 287 80 0 80 0 0 -110z m-365 -119 c49 -22 98
-76 116 -128 9 -26 13 -99 14 -233 l0 -195 -77 -3 -78 -3 0 177 c0 203 -9 236
-69 261 -75 32 -159 -9 -181 -86 -5 -20 -10 -107 -10 -193 l0 -158 -75 0 -75
0 0 285 0 285 75 0 75 0 0 -37 0 -37 28 27 c15 14 43 33 62 41 49 21 146 20
195 -3z m908 2 c107 -38 176 -136 185 -263 l5 -70 -222 0 c-135 0 -221 -4
-221 -10 0 -5 14 -25 30 -44 54 -61 164 -66 235 -11 l31 23 52 -40 c29 -23 52
-44 52 -48 0 -13 -68 -60 -118 -83 -69 -31 -188 -30 -260 2 -169 76 -223 290
-112 444 74 103 217 145 343 100z m-1423 -278 l0 -286 -77 3 -78 3 -3 283 -2
282 80 0 80 0 0 -285z m1992 -192 c37 -33 10 -93 -43 -93 -50 0 -70 54 -36 98
13 17 57 15 79 -5z"/>
<path d="M1864 921 c-34 -21 -64 -57 -64 -78 0 -10 34 -13 145 -13 158 0 164
3 124 54 -11 14 -34 33 -49 41 -41 21 -118 19 -156 -4z"/>
<path d="M2588 579 c17 -6 22 -14 17 -28 -3 -11 -1 -22 5 -26 14 -9 13 38 -2
53 -7 7 -19 12 -27 11 -10 0 -7 -4 7 -10z"/>
<path d="M2547 573 c-11 -10 -8 -51 3 -58 6 -4 10 8 10 29 0 37 -2 41 -13 29z"/>
<path d="M2570 515 c0 -8 7 -15 15 -15 9 0 12 6 9 15 -4 8 -10 15 -15 15 -5 0
-9 -7 -9 -15z"/>
</g>
</svg>
